HIERARCHY
ROOT Hips
{
    OFFSET 0.000000 0.000000 0.000000
    CHANNELS 6 Xposition Yposition Zposition Zrotation Xrotation Yrotation
    JOINT Spine
    {
        OFFSET -0.000000 7.236184 0.000000
        CHANNELS 3 Zrotation Xrotation Yrotation
        JOINT Spine1
        {
            OFFSET -0.000000 20.420147 0.000000
            CHANNELS 3 Zrotation Xrotation Yrotation
            JOINT Neck
            {
                OFFSET -0.000000 20.336288 1.848754
                CHANNELS 3 Zrotation Xrotation Yrotation
                JOINT Head
                {
                    OFFSET -0.000000 12.354461 -1.764923
                    CHANNELS 3 Zrotation Xrotation Yrotation
                    End Site
                    {
                        OFFSET -0.000000 22.061537 0.000000
                    }
                }
            }
            JOINT LeftShoulder
            {
                OFFSET 3.573296 18.396038 -0.314103
                CHANNELS 3 Zrotation Xrotation Yrotation
                JOINT LeftArm
                {
                    OFFSET 10.880760 0.000000 0.000000
                    CHANNELS 3 Zrotation Xrotation Yrotation
                    JOINT LeftForeArm
                    {
                        OFFSET 27.185530 0.000000 0.000000
                        CHANNELS 3 Zrotation Xrotation Yrotation
                        JOINT LeftHand
                        {
                            OFFSET 27.825975 0.000000 0.000000
                            CHANNELS 3 Zrotation Xrotation Yrotation
                            End Site
                            {
                                OFFSET 13.236923 0.000000 0.000000
                            }
                        }
                    }
                }
            }
            JOINT RightShoulder
            {
                OFFSET -3.474926 18.396038 -0.314103
                CHANNELS 3 Zrotation Xrotation Yrotation
                JOINT RightArm
                {
                    OFFSET -10.880760 0.000000 0.000000
                    CHANNELS 3 Zrotation Xrotation Yrotation
                    JOINT RightForeArm
                    {
                        OFFSET -27.185530 0.000000 0.000000
                        CHANNELS 3 Zrotation Xrotation Yrotation
                        JOINT RightHand
                        {
                            OFFSET -27.825975 0.000000 0.000000
                            CHANNELS 3 Zrotation Xrotation Yrotation
                            End Site
                            {
                                OFFSET -13.236923 0.000000 0.000000
                            }
                        }
                    }
                }
            }
        }
    }
    JOINT LeftUpLeg
    {
        OFFSET 8.824615 0.000000 0.000000
        CHANNELS 3 Zrotation Xrotation Yrotation
        JOINT LeftLeg
        {
            OFFSET -0.000000 -35.111282 0.000000
            CHANNELS 3 Zrotation Xrotation Yrotation
            JOINT LeftFoot
            {
                OFFSET -0.000000 -42.324711 0.000000
                CHANNELS 3 Zrotation Xrotation Yrotation
                JOINT LeftToeBase
                {
                    OFFSET -0.000000 -5.735999 13.236923
                    CHANNELS 3 Zrotation Xrotation Yrotation
                    End Site
                    {
                        OFFSET -0.000000 0.000000 3.529846
                    }
                }
            }
        }
    }
    JOINT RightUpLeg
    {
        OFFSET -8.824615 0.000000 0.000000
        CHANNELS 3 Zrotation Xrotation Yrotation
        JOINT RightLeg
        {
            OFFSET -0.000000 -35.111282 0.000000
            CHANNELS 3 Zrotation Xrotation Yrotation
            JOINT RightFoot
            {
                OFFSET -0.000000 -42.324711 0.000000
                CHANNELS 3 Zrotation Xrotation Yrotation
                JOINT RightToeBase
                {
                    OFFSET -0.000000 -5.735999 13.236923
                    CHANNELS 3 Zrotation Xrotation Yrotation
                    End Site
                    {
                        OFFSET -0.000000 0.000000 3.529846
                    }
                }
            }
        }
    }
}
MOTION
Frames:    8
Frame Time:    0.008333
10.213481    82.440025    105.420074    -1.421614    -8.690852    -175.044128    -2.433185    -16.925848    -0.553374    2.033809    6.525496    -0.307529    2.442686    9.705203    -0.405344    0.188121    -1.176428    -0.542261    -1.218262    17.180105    -0.275271    -43.272079    47.823486    -42.652065    -2.174143    -0.347143    -17.734447    17.913685    -0.539525    0.931719    7.785158    18.482931    -6.820355    44.089657    45.509930    32.464901    -1.005997    -9.781237    15.514018    -16.236439    -9.058460    -4.173576    5.098411    -8.381802    3.669779    -1.077857    8.636181    5.941118    -6.379550    -6.041937    -8.951330    -0.831683    -0.289727    0.922370    -6.145010    -3.410378    2.280226    3.735246    3.580149    2.945422    0.439251    -6.471269    -13.745731    -0.698490    1.553205    0.753885    
10.226196    82.439949    105.430840    -1.422491    -8.682135    -175.014999    -2.433541    -16.930727    -0.554300    2.035889    6.533425    -0.308356    2.444757    9.708681    -0.408410    0.182090    -1.173820    -0.546367    -1.219811    17.181179    -0.271745    -43.282047    47.816906    -42.644424    -2.186643    -0.349870    -17.727165    17.874487    -0.544748    0.929599    7.785089    18.483177    -6.827061    44.138798    45.479317    32.404087    -0.989541    -9.786813    15.473001    -16.186138    -9.065759    -4.192797    5.101616    -8.393333    3.651276    -1.075182    8.644660    5.947915    -6.378262    -6.026714    -8.965861    -0.833686    -0.296385    0.924603    -6.146945    -3.398429    2.316966    3.752476    3.572023    2.960820    0.416374    -6.472552    -13.824475    -0.700748    1.556874    0.756318    
10.238759    82.439880    105.441475    -1.423412    -8.673353    -174.986176    -2.433798    -16.935509    -0.555205    2.037779    6.541330    -0.309222    2.446935    9.712058    -0.411359    0.176134    -1.171507    -0.550492    -1.221326    17.181793    -0.268291    -43.292610    47.810440    -42.636047    -2.199510    -0.352673    -17.719767    17.836424    -0.550153    0.926837    7.785115    18.483315    -6.833708    44.187122    45.449314    32.344227    -0.973370    -9.790488    15.430314    -16.140291    -9.072057    -4.204316    5.104735    -8.404651    3.633506    -1.072429    8.653275    5.953439    -6.376973    -6.011844    -8.979687    -0.835721    -0.303229    0.926872    -6.149009    -3.386404    2.353814    3.769762    3.563973    2.976032    0.393484    -6.473862    -13.902876    -0.702846    1.560799    0.758578    
10.251085    82.439835    105.451897    -1.424370    -8.664690    -174.957840    -2.433815    -16.940315    -0.555821    2.039291    6.549014    -0.310318    2.449164    9.715330    -0.414381    0.170725    -1.169277    -0.554447    -1.223138    17.182096    -0.264508    -43.302746    47.804470    -42.627441    -2.212958    -0.355912    -17.712423    17.800272    -0.556227    0.923194    7.785480    18.483418    -6.840381    44.233967    45.420719    32.285740    -0.958028    -9.791618    15.385079    -16.100809    -9.077080    -4.204271    5.107731    -8.415998    3.617797    -1.069430    8.662321    5.956460    -6.375870    -5.997576    -8.992751    -0.837868    -0.309896    0.929263    -6.151424    -3.374357    2.391162    3.787449    3.555649    2.991418    0.370443    -6.475083    -13.981529    -0.704579    1.564510    0.760444    
10.263019    82.439796    105.461990    -1.425453    -8.656151    -174.930359    -2.433429    -16.945219    -0.556623    2.039926    6.556589    -0.311166    2.451590    9.718423    -0.417279    0.166004    -1.167294    -0.558266    -1.224827    17.182240    -0.260432    -43.312782    47.798626    -42.618549    -2.227428    -0.359850    -17.705172    17.767471    -0.563268    0.918472    7.786287    18.483109    -6.846628    44.279293    45.393921    32.228554    -0.943605    -9.790198    15.337580    -16.067839    -9.080744    -4.193110    5.110536    -8.427245    3.605222    -1.066161    8.671997    5.955466    -6.374771    -5.984377    -9.004381    -0.840092    -0.316302    0.931741    -6.154279    -3.362388    2.428510    3.805391    3.547327    3.006706    0.347406    -6.476231    -14.059338    -0.705693    1.568388    0.761643    
10.274516    82.439789    105.471718    -1.426661    -8.647696    -174.903839    -2.432763    -16.949915    -0.557379    2.040128    6.563611    -0.311983    2.454062    9.721639    -0.420072    0.161722    -1.165984    -0.561915    -1.226997    17.181955    -0.256068    -43.322960    47.793541    -42.608643    -2.242768    -0.365115    -17.698046    17.739368    -0.571824    0.912801    7.787349    18.482981    -6.852767    44.322750    45.369015    32.173393    -0.930260    -9.787156    15.288502    -16.039351    -9.083508    -4.174510    5.113148    -8.438516    3.597604    -1.062399    8.682716    5.948249    -6.373774    -5.972536    -9.014114    -0.842457    -0.322461    0.934375    -6.157439    -3.350468    2.465425    3.823281    3.539019    3.021614    0.324757    -6.477249    -14.135373    -0.706175    1.572163    0.762159    
10.285735    82.439766    105.481209    -1.428028    -8.639208    -174.877991    -2.431619    -16.954546    -0.558062    2.039593    6.570421    -0.312858    2.456374    9.724417    -0.422684    0.158455    -1.165061    -0.565282    -1.229437    17.181814    -0.250994    -43.332684    47.788807    -42.598591    -2.259573    -0.372094    -17.691193    17.717308    -0.582487    0.906656    7.788702    18.482714    -6.858777    44.365093    45.345829    32.119198    -0.917812    -9.783143    15.238043    -16.013601    -9.085527    -4.152596    5.115603    -8.450012    3.595431    -1.057957    8.694846    5.934185    -6.372874    -5.962016    -9.022132    -0.844881    -0.328597    0.937074    -6.160612    -3.338658    2.501431    3.840677    3.530960    3.035214    0.302735    -6.478111    -14.208373    -0.705685    1.576026    0.761626    
10.296525    82.439743    105.490326    -1.429492    -8.630742    -174.853180    -2.429950    -16.959208    -0.558664    2.038351    6.577029    -0.313813    2.458998    9.727202    -0.424999    0.155342    -1.165124    -0.568271    -1.232124    17.181673    -0.245520    -43.342957    47.784317    -42.587505    -2.277770    -0.380793    -17.684647    17.704031    -0.594961    0.900470    7.790385    18.482609    -6.864491    44.405750    45.324627    32.066631    -0.906797    -9.778628    15.187741    -15.990086    -9.086747    -4.130756    5.117927    -8.461436    3.598316    -1.053019    8.707985    5.914218    -6.371998    -5.952812    -9.028572    -0.847336    -0.334283    0.939806    -6.163439    -3.327085    2.535212    3.856817    3.523224    3.046814    0.282076    -6.478667    -14.275851    -0.704192    1.579810    0.760012    
